<svg width="20" height="20" viewBox="0 0 20 20" fill="none" xmlns="http://www.w3.org/2000/svg">
<path d="M12.352 10.9728L12.17 9.69702L11.0762 10.7908L12.352 10.9728Z" fill="white"/>
<path d="M3.93604 4.13818L4.48291 3.59131L10.8917 9.99992L10.3448 10.547L3.93604 4.13818Z" fill="white"/>
<path d="M6.20687 0.750488C5.85548 0.894784 5.51267 1.05912 5.17896 1.24298L6.20687 2.2709V0.750488Z" fill="white"/>
<path d="M4.97052 3.10352L5.5174 2.55664L11.9262 8.96542L11.3791 9.51229L4.97052 3.10352Z" fill="white"/>
<path d="M3.44828 3.65037L5.02964 2.06901L3.97764 1.01735C3.7665 0.805875 3.48583 0.689697 3.18697 0.689697C2.57038 0.689697 2.06897 1.19145 2.06897 1.80803C2.06897 2.10655 2.18515 2.38723 2.39662 2.59871L3.44828 3.65037Z" fill="white"/>
<path d="M15.1724 0.487549V2.06891H16.7538L15.1724 0.487549Z" fill="white"/>
<path d="M13.1652 11.7859L10.1823 11.3596L6.89655 8.07415V12.4138H17.2414V2.75862H14.4828V0H9.99999C8.93857 0 7.89281 0.172751 6.89655 0.497542V2.96067L12.7386 8.80304L13.1652 11.7859ZM16.5517 11.0345H13.7931V10.3448H16.5517V11.0345ZM16.5517 9.65517H13.7931V8.96552H16.5517V9.65517ZM16.5517 8.27586H13.7931V7.58621H16.5517V8.27586ZM16.5517 5.51724H11.7241V4.82759H16.5517V5.51724ZM16.5517 3.44828V4.13793H11.7241V3.44828H16.5517ZM8.96551 0.689655H13.7931V1.37931H8.96551V0.689655ZM7.5862 0.689655H8.27586V1.37931H7.5862V0.689655ZM7.5862 2.06897H13.7931V2.75862H7.5862V2.06897ZM11.7241 6.2069H16.5517V6.89655H11.7241V6.2069Z" fill="white"/>
<path d="M7.48167 14.4827H3.4483V15.5171C3.4483 16.0874 3.91251 16.5516 4.48279 16.5516H8.96554V18.6206H14.4828V17.2413H9.67827V16.5516H17.5448C17.9186 16.1216 18.2584 15.6616 18.5552 15.1723H8.51616L7.48167 14.4827ZM4.82761 15.862H4.13796V15.1723H4.82761V15.862ZM6.20692 15.862H5.51727V15.1723H6.20692V15.862ZM7.58623 15.862H6.89658V15.1723H7.58623V15.862Z" fill="white"/>
<path d="M17.9311 3.90869V13.1035H6.20692V7.38458L4.3528 5.53046C3.84415 5.59528 3.4483 6.02598 3.4483 6.55181V13.7932H7.69079L8.72528 14.4828H18.9349C19.6145 13.1335 20 11.6114 20 10.0001C20 7.78042 19.2706 5.65 17.9311 3.90869Z" fill="white"/>
<path d="M15.1724 18.5556C15.791 18.1801 16.3642 17.7376 16.8854 17.2415H15.1724V18.5556Z" fill="white"/>
<path d="M6.89655 18.6206H8.27586V17.2413H4.48276C3.53213 17.2413 2.75862 16.4678 2.75862 15.5172V6.55168C2.75862 5.84586 3.18629 5.23888 3.79512 4.97268L2.36614 3.5437C0.838665 5.34748 0 7.6254 0 9.99996C0 15.5142 4.48613 20 10 20C11.2849 20 12.5125 19.7538 13.6421 19.3103H6.89655V18.6206Z" fill="white"/>
</svg>
