<svg width="59" height="40" viewBox="0 0 59 40" fill="none" xmlns="http://www.w3.org/2000/svg">
<path d="M8.94818 23.7358C9.57834 23.7359 10.1944 23.549 10.7183 23.1989C11.2423 22.8488 11.6507 22.3512 11.8918 21.7691C12.133 21.1869 12.1961 20.5462 12.0732 19.9282C11.9502 19.3101 11.6468 18.7424 11.2012 18.2968C10.7556 17.8512 10.1879 17.5478 9.56984 17.4249C8.95179 17.3019 8.31116 17.365 7.72898 17.6062C7.14679 17.8474 6.64919 18.2558 6.29911 18.7797C5.94903 19.3037 5.76218 19.9197 5.76221 20.5499C5.76318 21.3945 6.09916 22.2043 6.69644 22.8016C7.29371 23.3989 8.1035 23.7349 8.94818 23.7358ZM8.94818 19.0868C9.23754 19.0868 9.52041 19.1726 9.76102 19.3334C10.0016 19.4941 10.1892 19.7226 10.2999 19.9899C10.4107 20.2572 10.4397 20.5514 10.3832 20.8352C10.3268 21.119 10.1875 21.3797 9.98285 21.5843C9.77825 21.7889 9.51757 21.9283 9.23376 21.9848C8.94996 22.0412 8.65579 22.0123 8.38846 21.9015C8.12112 21.7908 7.89262 21.6033 7.73185 21.3627C7.57109 21.1221 7.48528 20.8392 7.48528 20.5499C7.48571 20.162 7.63997 19.7901 7.91422 19.5159C8.18847 19.2416 8.56031 19.0873 8.94818 19.0868Z" fill="black"/>
<path d="M49.3907 23.7358C50.0208 23.7358 50.6368 23.549 51.1608 23.1989C51.6847 22.8488 52.0931 22.3512 52.3343 21.769C52.5754 21.1868 52.6385 20.5462 52.5155 19.9281C52.3926 19.3101 52.0891 18.7424 51.6435 18.2968C51.198 17.8512 50.6302 17.5478 50.0122 17.4249C49.3941 17.3019 48.7535 17.365 48.1713 17.6062C47.5892 17.8474 47.0916 18.2558 46.7415 18.7797C46.3914 19.3037 46.2046 19.9197 46.2046 20.5499C46.2056 21.3946 46.5416 22.2044 47.1389 22.8016C47.7362 23.3989 48.546 23.7349 49.3907 23.7358ZM49.3907 19.0868C49.68 19.0868 49.9629 19.1727 50.2035 19.3334C50.4441 19.4942 50.6316 19.7227 50.7423 19.99C50.8531 20.2573 50.882 20.5515 50.8256 20.8353C50.7691 21.1191 50.6298 21.3798 50.4252 21.5844C50.2206 21.789 49.9599 21.9283 49.6761 21.9848C49.3923 22.0412 49.0981 22.0122 48.8308 21.9015C48.5635 21.7908 48.335 21.6033 48.1742 21.3627C48.0135 21.1221 47.9277 20.8392 47.9277 20.5499C47.9281 20.162 48.0824 19.7901 48.3566 19.5158C48.6309 19.2415 49.0028 19.0873 49.3907 19.0868Z" fill="black"/>
<path d="M14.4187 20.8H43.9202C44.1487 20.8 44.3678 20.7092 44.5294 20.5476C44.691 20.3861 44.7817 20.1669 44.7817 19.9384C44.7817 19.7099 44.691 19.4908 44.5294 19.3292C44.3678 19.1677 44.1487 19.0769 43.9202 19.0769H14.4187C14.1902 19.0769 13.971 19.1677 13.8095 19.3292C13.6479 19.4908 13.5571 19.7099 13.5571 19.9384C13.5571 20.1669 13.6479 20.3861 13.8095 20.5476C13.971 20.7092 14.1902 20.8 14.4187 20.8Z" fill="black"/>
<path d="M14.4187 23.6308H43.9202C44.1487 23.6308 44.3678 23.54 44.5294 23.3785C44.691 23.2169 44.7817 22.9977 44.7817 22.7693C44.7817 22.5408 44.691 22.3216 44.5294 22.1601C44.3678 21.9985 44.1487 21.9077 43.9202 21.9077H14.4187C14.1902 21.9077 13.971 21.9985 13.8095 22.1601C13.6479 22.3216 13.5571 22.5408 13.5571 22.7693C13.5571 22.9977 13.6479 23.2169 13.8095 23.3785C13.971 23.54 14.1902 23.6308 14.4187 23.6308Z" fill="black"/>
<path d="M57.0316 15.9231C56.6008 14.4256 55.5939 13.0652 54.3049 12.0615H57.1077C57.3362 12.0615 57.5554 11.9708 57.7169 11.8092C57.8785 11.6476 57.9693 11.4285 57.9693 11.2C57.9681 10.1558 57.5528 9.15473 56.8144 8.41638C56.0761 7.67803 55.075 7.26271 54.0308 7.26154H53.6616C53.0603 7.26164 52.467 7.3996 51.9274 7.66481C51.3878 7.93002 50.9161 8.31542 50.5487 8.79138L48.2537 3.50658C47.8054 2.47186 47.0647 1.59057 46.1225 0.970942C45.1804 0.351311 44.0777 0.0203106 42.9501 0.0185847L15.5267 0H15.5244C14.4111 0.00280932 13.3223 0.325822 12.3876 0.930498C11.4529 1.53517 10.712 2.39598 10.2531 3.41022L8.24497 7.85785C7.52932 7.23354 6.61127 6.89042 5.66158 6.89231H5.29235C4.24817 6.89348 3.24709 7.3088 2.50874 8.04715C1.77039 8.7855 1.35506 9.78658 1.35389 10.8308C1.35389 11.0593 1.44466 11.2784 1.60623 11.44C1.7678 11.6015 1.98694 11.6923 2.21543 11.6923H4.53592C3.00238 12.7188 1.78072 14.2377 1.29691 15.9317C0.439677 18.9564 0.160908 20.2524 0.0832461 20.8522C0.0285894 20.967 0.000168505 21.0924 4.60645e-05 21.2196V28.3492C-0.00530237 29.7145 0.455239 31.0407 1.30559 32.1089C2.15594 33.177 3.34522 33.9232 4.67697 34.224V37.8498C4.67814 38.414 4.90051 38.9552 5.29632 39.3573C5.69213 39.7593 6.22981 39.99 6.79389 40H10.6376C11.2064 39.9918 11.7499 39.7631 12.1533 39.3619C12.5568 38.9608 12.7886 38.4187 12.8 37.8498V34.3385H45.2924V37.8498C45.2976 38.4159 45.5238 38.9575 45.9227 39.3592C46.3216 39.7609 46.8616 39.9908 47.4276 40H51.5447C52.1088 39.9901 52.6465 39.7594 53.0423 39.3573C53.4381 38.9553 53.6605 38.414 53.6616 37.8498V34.2239C54.9933 33.923 56.1826 33.1769 57.0329 32.1088C57.8833 31.0407 58.3438 29.7144 58.3385 28.3492V21.2196C58.3383 21.1236 58.3221 21.0284 58.2904 20.9378C58.2389 20.3265 57.9673 19.0154 57.0316 15.9231ZM53.6616 8.98462H54.0308C54.4663 8.98505 54.8921 9.11366 55.255 9.3544C55.618 9.59515 55.902 9.93739 56.0718 10.3385H51.6206C51.7904 9.93739 52.0744 9.59515 52.4374 9.3544C52.8003 9.11366 53.2261 8.98505 53.6616 8.98462ZM11.8232 4.11975C12.1453 3.40736 12.6654 2.80263 13.3217 2.37768C13.9779 1.95273 14.7425 1.7255 15.5244 1.72308H15.5261L42.9495 1.74166C43.7411 1.74257 44.5152 1.97466 45.1767 2.40944C45.8383 2.84422 46.3584 3.46274 46.6733 4.18905L49.3416 10.3385H23.3161C22.9899 9.10405 22.2644 8.01225 21.2528 7.23325C20.2412 6.45425 19.0003 6.03183 17.7235 6.03183C16.4467 6.03183 15.2058 6.45425 14.1942 7.23325C13.1826 8.01225 12.4571 9.10405 12.1309 10.3385H9.56817C9.53398 10.0633 9.47086 9.79259 9.37986 9.53071L11.8232 4.11975ZM21.5075 10.3385H13.9394C14.2368 9.57691 14.7571 8.92281 15.4322 8.46169C16.1073 8.00057 16.9059 7.75389 17.7234 7.75389C18.541 7.75389 19.3395 8.00057 20.0147 8.46169C20.6898 8.92281 21.2101 9.57691 21.5075 10.3385ZM5.29235 8.61539H5.66158C6.01804 8.61558 6.36918 8.70185 6.68516 8.86684C7.00113 9.03183 7.2726 9.27068 7.47648 9.56308L7.2926 9.96923H3.25137C3.42114 9.56816 3.70519 9.22592 4.06813 8.98517C4.43107 8.74443 4.85683 8.61582 5.29235 8.61539ZM2.95389 16.4032C3.62626 14.0497 6.26245 12.0615 8.71045 12.0615H49.6203C52.0674 12.0615 54.7034 14.05 55.3768 16.4036L55.3805 16.4159C55.9147 18.1812 56.4882 20.3092 56.5726 20.9729C56.2368 21.3653 55.0949 22.2358 54.1321 22.8914C51.921 24.367 47.8071 25.5991 45.1485 25.5991H13.3293C10.6693 25.5991 6.54577 24.3769 4.32448 22.9135C4.32029 22.9106 4.31586 22.9148 4.31217 22.9121C3.21445 22.2164 2.10909 21.3815 1.79229 21.0138C1.88891 20.3529 2.44362 18.2049 2.95389 16.4032ZM39.1933 27.3231L38.7559 28.6172C38.4344 29.5631 37.2762 30.4 36.2775 30.4H20.53C19.5357 30.4 18.3924 29.5631 18.0837 28.6177L17.6637 27.3231H39.1933ZM11.077 37.8498C11.0662 37.9615 11.0161 38.0658 10.9356 38.144C10.8551 38.2222 10.7495 38.2693 10.6376 38.2769H6.79389C6.68689 38.2675 6.58725 38.2185 6.51443 38.1395C6.4416 38.0605 6.40082 37.9573 6.40005 37.8498V34.3385H11.077V37.8498ZM51.5447 38.2769H47.4276C47.3186 38.2683 47.2166 38.2201 47.1406 38.1414C47.0647 38.0628 47.0202 37.9591 47.0154 37.8498V34.3385H51.9385V37.8498C51.9378 37.9573 51.897 38.0606 51.8242 38.1396C51.7514 38.2185 51.6517 38.2675 51.5447 38.2769ZM52.3113 32.6154H6.027C5.46397 32.619 4.90578 32.5113 4.38445 32.2987C3.86312 32.086 3.38891 31.7725 2.98904 31.3761C2.58916 30.9797 2.27149 30.5083 2.05426 29.9889C1.83702 29.4694 1.72449 28.9122 1.72312 28.3492V23.2329C2.15217 23.5583 2.69543 23.9211 3.38355 24.3575C5.88201 26.0009 10.3417 27.3237 13.3295 27.3237H15.8511L16.4457 29.1532C16.9885 30.8148 18.7824 32.1237 20.53 32.1237H36.2775C38.0207 32.1237 39.8259 30.823 40.3872 29.1726L41.0133 27.3231H45.1487C48.1411 27.3231 52.6003 25.9858 55.0953 24.32C55.6825 23.9204 56.1895 23.5668 56.6157 23.2319V28.3487C56.6144 28.9118 56.5019 29.4691 56.2847 29.9886C56.0674 30.5081 55.7497 30.9796 55.3498 31.376C54.9499 31.7725 54.4757 32.086 53.9543 32.2987C53.4329 32.5114 52.8746 32.619 52.3116 32.6154H52.3113Z" fill="black"/>
</svg>
