<svg width="15" height="20" viewBox="0 0 15 20" fill="none" xmlns="http://www.w3.org/2000/svg">
<path d="M7.48896 10.6167C8.74681 10.6167 9.76635 9.59689 9.76635 8.33918C9.76635 7.08133 8.74681 6.06165 7.48896 6.06165C6.23097 6.06165 5.21143 7.08133 5.21143 8.33918C5.21294 9.59634 6.23166 10.6151 7.48896 10.6167ZM7.48896 6.94711C8.26016 6.94711 8.8853 7.57225 8.8853 8.34358C8.8853 9.11478 8.26016 9.74006 7.48896 9.74006C6.71762 9.74006 6.09248 9.11478 6.09248 8.34358C6.09262 7.57238 6.71776 6.94738 7.48896 6.94711Z" fill="#043F7C" fill-opacity="0.5"/>
<path d="M7.48901 11.4581C6.55715 11.4512 5.66288 11.8253 5.01324 12.4933C4.35244 13.1674 3.99121 14.0837 3.99121 15.0792C3.9919 15.3222 4.18862 15.5191 4.43174 15.5198H10.5461C10.7893 15.5191 10.986 15.3222 10.9867 15.0792C10.9867 14.0837 10.6254 13.1674 9.96464 12.4933C9.31514 11.8253 8.42073 11.4512 7.48901 11.4581ZM4.90311 14.6387C4.97841 14.0627 5.23818 13.5267 5.64319 13.1101C6.13067 12.6168 6.79545 12.3392 7.48901 12.3392C8.18243 12.3392 8.84721 12.6168 9.33469 13.1101C9.73887 13.5271 9.99837 14.063 10.0748 14.6387H4.90311Z" fill="#043F7C" fill-opacity="0.5"/>
<path d="M12.7753 0H2.20264C0.986371 0.000550661 0.000413004 0.986371 0 2.20264V17.7974C0.000413004 19.0136 0.986371 19.9994 2.20264 20H12.7753C13.9916 19.9994 14.9774 19.0136 14.978 17.7974V2.20264C14.9774 0.986371 13.9916 0.000550661 12.7753 0ZM14.0969 17.7974C14.0949 18.5263 13.5043 19.1169 12.7753 19.1189H2.20264C1.47371 19.1169 0.883122 18.5263 0.881057 17.7974V2.20264C0.883122 1.47371 1.47371 0.883122 2.20264 0.881057H12.7753C13.5043 0.883122 14.0949 1.47371 14.0969 2.20264V17.7974Z" fill="#043F7C" fill-opacity="0.5"/>
<path d="M5.65195 2.95601H9.17618C9.41944 2.95601 9.61671 2.75873 9.61671 2.51548C9.61671 2.27223 9.41944 2.07495 9.17618 2.07495H5.65195C5.40856 2.07495 5.21143 2.27223 5.21143 2.51548C5.21143 2.75873 5.40856 2.95601 5.65195 2.95601Z" fill="#043F7C" fill-opacity="0.5"/>
</svg>
