<svg width="37" height="52" viewBox="0 0 37 52" fill="none" xmlns="http://www.w3.org/2000/svg">
<path d="M35.1469 39.7237L26.8413 26.9656C26.2406 26.0413 25.2156 25.6264 24.1884 25.6264C23.9759 25.6264 23.5359 25.6315 23.0603 25.6381C23.0232 25.5758 22.9845 25.5141 22.9219 25.472L20.83 24.0827C20.5887 23.9226 20.2753 23.931 20.0438 24.1013L18.3137 25.3782L16.5824 24.1013C16.3492 23.931 16.0376 23.9226 15.7943 24.0827L13.7062 25.472C13.6472 25.5105 13.6097 25.5646 13.5753 25.6212C13.0824 25.6243 12.6232 25.627 12.4297 25.627C11.4072 25.627 10.3869 26.0475 9.78988 26.9656L1.48421 39.7237C0.601168 41.0781 0.958569 42.8892 2.29027 43.8063L4.13393 45.0772C5.24534 42.4305 7.08094 40.1675 9.38623 38.5153L9.86164 37.7841V38.1783C11.5322 37.0746 13.4286 36.292 15.4646 35.9085C14.8596 34.5659 14.352 32.9665 13.9797 31.459C13.5459 29.6999 13.2915 28.0697 13.2915 27.1464C13.2915 26.8043 13.3357 26.4748 13.4028 26.1534L14.9136 31.1531C14.9918 31.4149 15.2183 31.604 15.4895 31.6359C15.5169 31.639 15.5435 31.6406 15.5695 31.6406C15.811 31.6406 16.0393 31.513 16.1635 31.2997L17.3413 29.2709L17.6727 29.6012C16.8797 30.6502 16.5681 33.6028 16.4472 35.7583C17.0591 35.6834 17.6789 35.6336 18.3106 35.6336C18.9437 35.6336 19.5655 35.6843 20.1792 35.7592C20.0581 33.6037 19.7467 30.6511 18.9517 29.6012L19.2831 29.2689L20.4646 31.2996C20.5888 31.5129 20.814 31.6405 21.0572 31.6405C21.0833 31.6405 21.1105 31.6389 21.1368 31.6358C21.4078 31.6038 21.6343 31.4147 21.7145 31.153L23.2244 26.1638C23.2891 26.4819 23.3317 26.8083 23.3317 27.1463C23.3317 28.862 22.4716 33.0001 21.1597 35.9084C23.1995 36.2931 25.099 37.0776 26.7696 38.184V37.786L27.253 38.5267C29.5503 40.1798 31.3809 42.439 32.4893 45.0812L34.341 43.8063C35.6723 42.8892 36.028 41.0781 35.1469 39.7237ZM15.77 29.2455L14.8908 26.333L16.1554 25.4918L17.4133 26.4196L15.77 29.2455ZM20.856 29.2455L19.2146 26.4195L20.4713 25.4917L21.7372 26.3329L20.856 29.2455Z" stroke="black"/>
<path d="M14.0093 44.3579L15.5104 46.3331C16.3425 45.8315 17.3069 45.5565 18.3103 45.5565C19.3157 45.5565 20.2819 45.8314 21.114 46.3339L22.6152 44.3572C21.4448 43.2548 19.9256 42.6503 18.3123 42.6503C16.6981 42.6503 15.1771 43.2557 14.0093 44.3579Z" stroke="black"/>
<path d="M11.353 17.3925C11.404 19.9911 12.8802 22.2176 15.0312 23.3737C16.0134 23.9025 17.1212 24.2296 18.3157 24.2296C19.5083 24.2296 20.6129 23.9032 21.594 23.3754C23.7443 22.2207 25.2261 19.9946 25.2752 17.395C23.5011 18.6277 20.9983 19.4289 18.3157 19.4289C15.6331 19.4289 13.1296 18.6277 11.353 17.3925Z" stroke="black"/>
<path d="M11.1535 11.222L11.1305 13.2847C11.1343 14.9171 14.3487 17.0434 18.3153 17.0434C22.2818 17.0434 25.4933 14.9171 25.4951 13.2847L25.4739 11.223C26.5177 10.9513 27.3276 10.5475 27.8463 9.96728C28.2527 9.51464 28.4861 8.95643 28.4861 8.25398C28.4863 5.07147 23.9283 1 18.3154 1C12.6975 1 8.14453 5.07147 8.14453 8.25398C8.14453 8.95643 8.37657 9.51372 8.78114 9.96728C9.30004 10.5474 10.111 10.9512 11.1535 11.222Z" stroke="black"/>
<path d="M18.3104 37.4369C10.8322 37.4369 4.74756 43.5217 4.74756 51H8.16436C8.16436 50.9951 8.16436 50.9883 8.16436 50.9835V50.9804C8.27543 50.311 8.84945 49.8233 9.52342 49.8233C9.53516 49.8233 9.54823 49.8243 9.56119 49.8243L14.8397 49.9612C14.7404 50.2927 14.6715 50.6369 14.6715 51.0001H21.9524C21.9524 50.6369 21.8841 50.2927 21.783 49.9612L27.0632 49.8243C27.0744 49.8243 27.0856 49.8233 27.0993 49.8233C27.7725 49.8233 28.3491 50.311 28.4594 50.9804V50.9835C28.4594 50.9883 28.4594 50.9951 28.4594 51H31.8732C31.8733 43.5217 25.7906 37.4369 18.3104 37.4369ZM24.1653 45.2959L21.3516 49.0034C20.6994 48.0145 19.583 47.3594 18.3103 47.3594C17.0407 47.3594 15.9231 48.0139 15.2721 49.0028L12.4591 45.2971C11.9794 44.6647 12.0395 43.7736 12.6012 43.2121C14.1786 41.6356 16.2445 40.8472 18.3122 40.8472C20.3793 40.8472 22.445 41.6356 24.025 43.2134C24.586 43.7746 24.6451 44.6639 24.1653 45.2959Z" stroke="black"/>
</svg>
