<svg width="53" height="50" viewBox="0 0 53 50" fill="none" xmlns="http://www.w3.org/2000/svg">
<path d="M50.5715 46.4276C47.7232 44.2 41.4947 42.7104 34.5508 44.7034C34.1362 44.8229 33.6918 44.9125 33.1978 44.9762C29.6179 43.2951 23.9023 42.5228 17.6527 44.3155C15.4845 44.9378 13.0283 44.7252 10.6528 44.5197C9.13315 44.3882 7.59546 44.2555 6.1624 44.3615C7.31806 43.4985 8.87789 42.6277 10.8238 41.9619C14.8838 40.5726 19.7138 40.3916 24.7904 41.4378C25.6804 41.6227 28.191 41.9817 32.2723 41.3254C35.913 40.7359 46.9349 40.4108 51.3682 41.1286C51.7855 41.1962 52.1786 40.9127 52.2462 40.4953C52.3138 40.0779 52.0303 39.6849 51.613 39.6172C49.92 39.3431 47.367 39.213 44.6211 39.1879V37.0645H46.069C47.5714 37.0645 48.7931 35.8408 48.7931 34.3374C48.7931 32.835 47.5714 31.6133 46.069 31.6133H44.8698L50.1155 26.3652C50.6212 25.8615 50.9 25.1889 50.9006 24.471C50.9013 23.7517 50.6228 23.0769 50.1166 22.5706C49.6109 22.0649 48.9368 21.7865 48.2184 21.7865C47.4999 21.7865 46.8257 22.0649 46.3201 22.5706L37.2776 31.6132H33.9441C33.5215 31.6132 33.1786 31.9562 33.1786 32.3787C33.1786 32.8013 33.5215 33.1442 33.9441 33.1442H37.595H43.0225H46.0692C46.7275 33.1442 47.2623 33.679 47.2623 34.3373C47.2623 34.9966 46.7275 35.5335 46.0692 35.5335H13.1773C12.5169 35.5335 11.9811 34.9966 11.9811 34.3373C11.9811 33.679 12.5169 33.1442 13.1773 33.1442H30.4117C30.8342 33.1442 31.1771 32.8013 31.1771 32.3787C31.1771 31.9562 30.8342 31.6132 30.4117 31.6132H27.6264L29.5115 14.5126L36.4548 15.2791L36.3048 16.6334C36.2583 17.049 36.567 17.4315 36.9815 17.4785C37.3964 17.5256 37.7802 17.2159 37.8265 16.8019L37.9766 15.4465L45.7793 16.3068L45.6293 17.6602C45.5833 18.0807 45.8854 18.4594 46.3059 18.5053C46.3345 18.5083 46.3631 18.5104 46.3907 18.5104C46.7764 18.5104 47.1071 18.2205 47.151 17.8296L47.3858 15.7139C47.3868 15.6945 47.3868 15.5373 47.3756 15.4801C46.705 11.811 44.8709 8.32143 42.2101 5.65554C39.1227 2.56099 35.0137 0.653432 30.328 0.136993C25.2473 -0.424353 20.5197 0.74631 16.6587 3.52243C16.3157 3.76942 16.2371 4.24707 16.4841 4.59103C16.7311 4.93396 17.2098 5.01255 17.5527 4.76555C20.4187 2.7049 23.8123 1.60874 27.4876 1.53628C23.5745 4.18788 21.2984 8.45922 20.6789 11.9998L12.1863 11.0649C12.9191 9.5962 13.8897 8.201 15.0287 6.9844C15.3176 6.67617 15.3022 6.19137 14.993 5.90254C14.6848 5.6137 14.2 5.62901 13.9111 5.93826C12.4118 7.53963 11.1799 9.42779 10.3481 11.3997C10.3165 11.4701 10.295 11.5487 10.2869 11.6252L10.0521 13.74C10.0067 14.1555 10.3138 14.5384 10.7288 14.585C11.1436 14.6316 11.5285 14.3235 11.5739 13.9084L11.7239 12.554L20.486 13.5195L20.337 14.8759C20.2918 15.2889 20.6005 15.6762 21.0147 15.72C21.4299 15.7639 21.8133 15.4576 21.8598 15.0423L22.0078 13.6869L27.9897 14.3452L26.0862 31.6132H13.1773C11.6729 31.6132 10.4502 32.8349 10.4502 34.3373C10.4502 35.8407 11.6729 37.0644 13.1773 37.0644H13.8175V39.6262C12.6084 39.8368 11.4418 40.1321 10.3282 40.5131C5.95429 42.0097 3.84995 44.2404 3.16256 45.107C1.82329 45.7742 0.726417 46.9584 0.0402468 48.9896C-0.038648 49.2232 -0.000170202 49.4806 0.143535 49.6809C0.287239 49.8811 0.51882 50 0.765405 50H51.4878C51.8998 50 52.2379 49.6739 52.2527 49.2622C52.2878 48.2954 51.7063 47.3151 50.5715 46.4276ZM47.4029 23.6534C47.6193 23.437 47.9089 23.3178 48.2185 23.3178C48.528 23.3178 48.8176 23.437 49.034 23.6534C49.2508 23.8702 49.37 24.1601 49.3697 24.4698C49.3694 24.7782 49.2506 25.0662 49.0339 25.282L42.7053 31.6136H39.4429L47.4029 23.6534ZM40.565 37.0649H43.0902V39.1848C42.2487 39.1886 41.4011 39.2012 40.565 39.2216V37.0649ZM27.0262 37.0648H39.034V39.2683C36.1317 39.3745 33.5219 39.5723 32.0284 39.814C29.6669 40.1938 27.8914 40.2163 26.6872 40.1385L27.0262 37.0648ZM19.2629 37.0648H25.4861L25.1676 39.9522C25.1445 39.9476 25.1218 39.9431 25.1007 39.9387C23.1124 39.5289 21.1571 39.2995 19.2629 39.2484V37.0648ZM45.6526 14.7528L38.1377 13.9241C38.2959 10.4009 37.0508 5.84783 33.9399 2.43178C40.8026 4.54357 44.4534 9.95189 45.6526 14.7528ZM22.2037 12.1687C22.9121 8.32092 25.8147 3.70869 30.3637 1.68376C30.5515 1.70621 30.7372 1.73071 30.922 1.75724C34.9218 4.72014 36.7539 9.84676 36.613 13.7568L22.2037 12.1687ZM15.3485 37.0649H17.7319V39.2465C16.9235 39.2666 16.1283 39.3207 15.3485 39.4082V37.0649ZM1.91259 48.4696C3.39057 45.5949 6.232 45.6741 10.5209 46.0452C13.0351 46.2627 15.6349 46.4876 18.075 45.7873C21.3864 44.8373 24.8021 44.5793 27.9533 45.0408C30.5463 45.4205 32.8585 46.2841 34.2972 47.4099C34.7506 47.7648 35.0914 48.1281 35.2987 48.4697H1.91259V48.4696ZM36.9615 48.4696C36.7402 47.6927 36.1575 46.9217 35.2406 46.2042C35.2084 46.179 35.1734 46.1545 35.1404 46.1294C35.1402 46.1289 35.1401 46.1283 35.14 46.1277C38.082 45.307 41.1089 45.0894 43.9049 45.4986C46.2455 45.8412 48.3317 46.6194 49.6284 47.6335C49.9821 47.9101 50.2615 48.197 50.4495 48.4694H36.9615V48.4696Z" fill="black"/>
</svg>
