<svg width="47" height="50" viewBox="0 0 47 50" fill="none" xmlns="http://www.w3.org/2000/svg">
<path d="M25.3639 3.06323C24.9595 3.06323 24.6316 3.39106 24.6316 3.79546V5.3521H22.4269V3.79546C22.4269 3.39097 22.099 3.06323 21.6946 3.06323C21.2902 3.06323 20.9624 3.39106 20.9624 3.79546V8.81099C20.9624 9.21548 21.2902 9.54321 21.6946 9.54321C22.099 9.54321 22.4269 9.21538 22.4269 8.81099V6.81665H24.6316V8.81099C24.6316 9.21548 24.9595 9.54321 25.3639 9.54321C25.7683 9.54321 26.0961 9.21538 26.0961 8.81099V3.79556C26.0962 3.39106 25.7683 3.06323 25.3639 3.06323Z" fill="black"/>
<path d="M45.8997 45.1761C46.2369 44.7752 46.4406 44.2584 46.4406 43.6947C46.4406 42.6468 45.7378 41.76 44.7789 41.4815C44.5004 40.5226 43.6136 39.8197 42.5656 39.8197C42.4488 39.8197 42.3329 39.8286 42.2187 39.8459C41.7624 38.7849 40.7119 38.0603 39.4961 38.0603C39.4056 38.0603 39.3161 38.0655 39.2272 38.0734V24.8403C39.2272 24.4358 38.8994 24.108 38.495 24.108C38.0906 24.108 37.7627 24.4358 37.7627 24.8403V44.5341H29.3683V35.785H30.754C31.1584 35.785 31.4862 35.4572 31.4862 35.0528C31.4862 34.6483 31.1584 34.3205 30.754 34.3205H28.636H18.4225H16.3045C15.9001 34.3205 15.5723 34.6484 15.5723 35.0528C15.5723 35.4573 15.9001 35.785 16.3045 35.785H17.6902V44.5341H9.2958V34.0446C9.2958 33.6401 8.96797 33.3123 8.56357 33.3123C8.15918 33.3123 7.83135 33.6402 7.83135 34.0446V38.0734C7.74248 38.0655 7.65303 38.0603 7.5625 38.0603C6.34658 38.0603 5.29609 38.7849 4.83994 39.8459C4.72568 39.8285 4.60977 39.8197 4.49297 39.8197C3.44502 39.8197 2.5582 40.5226 2.27969 41.4815C1.3208 41.7601 0.617969 42.6469 0.617969 43.6947C0.617969 44.1585 0.756152 44.5904 0.992773 44.9523C0.393164 45.3719 0 46.0671 0 46.8529V48.5844C0 49.365 0.635059 50 1.41562 50H11.8101C12.2145 50 12.5423 49.6722 12.5423 49.2678C12.5423 48.8634 12.2145 48.5356 11.8101 48.5356H1.46436V46.8529C1.46436 46.3818 1.84756 45.9986 2.31865 45.9986H2.90977C2.91357 45.9986 2.91729 45.9989 2.921 45.9989H8.56318C8.56514 45.9989 8.56689 45.9986 8.56885 45.9986H18.4225H28.6361H38.4897C38.4917 45.9986 38.4935 45.9989 38.4954 45.9989H44.1376C44.1414 45.9989 44.1451 45.9986 44.1488 45.9986H44.3006C44.7717 45.9986 45.1549 46.3818 45.1549 46.8529V48.5356H15.0012C14.5968 48.5356 14.2689 48.8634 14.2689 49.2678C14.2689 49.6722 14.5968 50 15.0012 50H45.2036C45.9842 50 46.6192 49.365 46.6192 48.5844V46.8529C46.6193 46.1939 46.3426 45.5987 45.8997 45.1761ZM2.921 42.855C3.32539 42.855 3.65322 42.5272 3.65322 42.1228C3.65322 41.6604 4.02988 41.2841 4.49287 41.2841C4.65566 41.2841 4.80752 41.3288 4.94434 41.4171C5.15869 41.5553 5.42959 41.5722 5.65928 41.4614C5.88906 41.3506 6.04463 41.1281 6.06992 40.8743C6.14648 40.1049 6.78818 39.5247 7.5624 39.5247C7.654 39.5247 7.74336 39.5351 7.83125 39.5509V44.534H2.91533C2.45557 44.531 2.08232 44.1558 2.08232 43.6947C2.08232 43.2318 2.45859 42.855 2.921 42.855ZM19.1547 35.7849H22.7971V44.534H19.1547V35.7849ZM24.2615 44.534V35.7849H27.9039V44.534H24.2615ZM39.2272 39.5509C39.3151 39.5351 39.4045 39.5247 39.4961 39.5247C40.2703 39.5247 40.912 40.1049 40.9886 40.8743C41.0139 41.1281 41.1694 41.3506 41.3992 41.4614C41.6289 41.5721 41.8999 41.5553 42.1142 41.4171C42.251 41.3288 42.4028 41.2841 42.5656 41.2841C43.0286 41.2841 43.4053 41.6604 43.4053 42.1228C43.4053 42.5273 43.7331 42.855 44.1375 42.855C44.5999 42.855 44.9762 43.2317 44.9762 43.6947C44.9762 44.1558 44.6029 44.531 44.1432 44.5341H39.2272V39.5509Z" fill="black"/>
<path d="M6.81748 9.33486H7.83086V30.8531C7.83086 31.2576 8.15869 31.5854 8.56309 31.5854C8.96748 31.5854 9.29531 31.2575 9.29531 30.8531V9.33486H18.0109V11.4365C18.0109 11.841 18.3388 12.1687 18.7432 12.1687H28.315C28.7194 12.1687 29.0473 11.8409 29.0473 11.4365V9.33486H37.7629V21.6492C37.7629 22.0537 38.0907 22.3814 38.4951 22.3814C38.8995 22.3814 39.2275 22.0537 39.2275 21.6492V9.33486H40.2409C41.0215 9.33486 41.6565 8.69981 41.6565 7.91924V5.28408C41.6565 4.50352 41.0215 3.86846 40.2409 3.86846H29.0475V0.732227C29.0475 0.327734 28.7196 0 28.3152 0H18.7434C18.339 0 18.0111 0.327832 18.0111 0.732227V3.86836H6.81748C6.03691 3.86836 5.40186 4.50342 5.40186 5.28398V7.91914C5.40186 8.69981 6.03691 9.33486 6.81748 9.33486ZM40.1922 5.33291V7.87041H38.4953H29.0475V5.33291H40.1922ZM19.4756 1.46445H27.583V10.7043H19.4756V1.46445ZM6.86631 5.33291H18.011V7.87041H8.56318H6.86631V5.33291Z" fill="black"/>
<path d="M35.0068 14.173H31.6873C31.2829 14.173 30.9551 14.5008 30.9551 14.9052V21.593C30.9551 21.9975 31.2829 22.3252 31.6873 22.3252H35.0068C35.4112 22.3252 35.7391 21.9974 35.7391 21.593V14.9052C35.7391 14.5007 35.4112 14.173 35.0068 14.173ZM34.2746 15.6374V17.8576H32.4196V15.6374H34.2746ZM32.4196 20.8608V19.3221H34.2746V20.8608H32.4196Z" fill="black"/>
<path d="M28.4619 14.173H25.1424C24.738 14.173 24.4102 14.5008 24.4102 14.9052V21.593C24.4102 21.9975 24.738 22.3252 25.1424 22.3252H28.4619C28.8663 22.3252 29.1941 21.9974 29.1941 21.593V14.9052C29.1941 14.5007 28.8663 14.173 28.4619 14.173ZM27.7297 15.6374V17.8576H25.8747V15.6374H27.7297ZM25.8747 20.8608V19.3221H27.7297V20.8608H25.8747Z" fill="black"/>
<path d="M21.916 14.173H18.5965C18.1921 14.173 17.8643 14.5008 17.8643 14.9052V21.593C17.8643 21.9975 18.1921 22.3252 18.5965 22.3252H21.916C22.3204 22.3252 22.6482 21.9974 22.6482 21.593V14.9052C22.6483 14.5007 22.3205 14.173 21.916 14.173ZM21.1838 15.6374V17.8576H19.3288V15.6374H21.1838ZM19.3288 20.8608V19.3221H21.1838V20.8608H19.3288Z" fill="black"/>
<path d="M15.3706 14.173H12.0511C11.6467 14.173 11.3188 14.5008 11.3188 14.9052V21.593C11.3188 21.9975 11.6467 22.3252 12.0511 22.3252H15.3706C15.775 22.3252 16.1028 21.9974 16.1028 21.593V14.9052C16.1029 14.5007 15.775 14.173 15.3706 14.173ZM14.6384 15.6374V17.8576H12.7834V15.6374H14.6384ZM12.7834 20.8608V19.3221H14.6384V20.8608H12.7834Z" fill="black"/>
<path d="M35.0068 24.0989H31.6873C31.2829 24.0989 30.9551 24.4267 30.9551 24.8311V31.5189C30.9551 31.9234 31.2829 32.2511 31.6873 32.2511H35.0068C35.4112 32.2511 35.7391 31.9233 35.7391 31.5189V24.8311C35.7391 24.4266 35.4112 24.0989 35.0068 24.0989ZM34.2746 25.5633V27.7837H32.4196V25.5633H34.2746ZM32.4196 30.7867V29.2481H34.2746V30.7867H32.4196Z" fill="black"/>
<path d="M28.4619 24.0989H25.1424C24.738 24.0989 24.4102 24.4267 24.4102 24.8311V31.5189C24.4102 31.9234 24.738 32.2511 25.1424 32.2511H28.4619C28.8663 32.2511 29.1941 31.9233 29.1941 31.5189V24.8311C29.1941 24.4266 28.8663 24.0989 28.4619 24.0989ZM27.7297 25.5633V27.7837H25.8747V25.5633H27.7297ZM25.8747 30.7867V29.2481H27.7297V30.7867H25.8747Z" fill="black"/>
<path d="M21.916 24.0989H18.5965C18.1921 24.0989 17.8643 24.4267 17.8643 24.8311V31.5189C17.8643 31.9234 18.1921 32.2511 18.5965 32.2511H21.916C22.3204 32.2511 22.6482 31.9233 22.6482 31.5189V24.8311C22.6483 24.4266 22.3205 24.0989 21.916 24.0989ZM21.1838 25.5633V27.7837H19.3288V25.5633H21.1838ZM19.3288 30.7867V29.2481H21.1838V30.7867H19.3288Z" fill="black"/>
<path d="M15.3706 24.0989H12.0511C11.6467 24.0989 11.3188 24.4267 11.3188 24.8311V31.5189C11.3188 31.9234 11.6467 32.2511 12.0511 32.2511H15.3706C15.775 32.2511 16.1028 31.9233 16.1028 31.5189V24.8311C16.1029 24.4266 15.775 24.0989 15.3706 24.0989ZM14.6384 25.5633V27.7837H12.7834V25.5633H14.6384ZM12.7834 30.7867V29.2481H14.6384V30.7867H12.7834Z" fill="black"/>
</svg>
