<svg width="50" height="50" viewBox="0 0 50 50" fill="none" xmlns="http://www.w3.org/2000/svg">
<path d="M48.5225 36.247H43.7836V48.1309H48.5225V36.247ZM47.216 13.8937C47.1218 13.9878 47.025 14.0791 46.9225 14.1649C47.1606 14.356 47.3765 14.5774 47.562 14.8238C48.0049 15.4079 48.2873 16.1359 48.3675 16.9166L49.9843 32.6123C50.0644 33.3901 49.8375 34.1542 49.3614 34.7881C49.7157 34.8407 49.9898 35.1452 49.9898 35.5134V48.8645C49.9898 49.2686 49.6603 49.5952 49.2562 49.5952H43.05C42.6458 49.5952 42.3192 49.2686 42.3192 48.8645V36.247H38.4189L40.8632 45.3461C41.1094 46.2624 40.9988 47.0735 40.661 47.7406C40.2791 48.4991 39.6064 49.05 38.8369 49.3462C37.9843 49.6729 37.0237 49.6895 36.1794 49.3268C35.2216 48.9171 34.596 48.0894 34.3302 47.0983L30.7427 33.739C30.4603 32.6926 30.6596 31.6213 31.3545 30.7715C32.0493 29.9271 33.104 29.4787 34.1863 29.4787H40.4175L39.8196 23.6821C39.5345 24.1029 39.2161 24.4102 38.7511 24.6316V27.1341C38.7511 27.5383 38.4245 27.8648 38.0204 27.8648H28.5391V48.8646C28.5391 49.2687 28.2126 49.5953 27.8085 49.5953H22.1919C21.7877 49.5953 21.4583 49.2687 21.4583 48.8646V39.6574C21.4583 39.2533 21.7877 38.9238 22.1919 38.9238C22.5961 38.9238 22.9226 39.2533 22.9226 39.6574V48.1309H27.0749V27.8648H22.9226V36.3384C22.9226 36.7453 22.596 37.072 22.1919 37.072C21.7877 37.072 21.4583 36.7453 21.4583 36.3384V27.8648H11.9801C11.5759 27.8648 11.2466 27.5382 11.2466 27.1341V24.6316C10.7843 24.413 10.4659 24.1029 10.1781 23.6821L9.58288 29.4787H15.8112C16.8825 29.4787 17.9372 29.9161 18.6347 30.7438C19.3545 31.5992 19.5427 32.6761 19.2576 33.7391L15.6701 47.0984C15.4043 48.0895 14.776 48.9172 13.821 49.3269C12.9739 49.6895 12.0161 49.673 11.1635 49.3463C10.394 49.0501 9.72126 48.4992 9.33933 47.7407C9.00163 47.0735 8.89089 46.2625 9.13728 45.3462L11.5815 36.2443H7.68113V48.8647C7.68113 49.2688 7.35173 49.5954 6.94753 49.5954H0.744115C0.337181 49.5954 0.0105211 49.2688 0.0105211 48.8647V35.5134C0.0105211 35.1452 0.28181 34.8407 0.636107 34.7881C0.160033 34.1542 -0.0642836 33.4012 0.0159898 32.6123L0.921166 23.8066C0.962669 23.4053 1.32253 23.1118 1.724 23.1533C2.12536 23.1948 2.41599 23.5547 2.37449 23.9562L1.87898 28.7673L8.12117 29.4095L8.90173 21.8107L6.88386 18.846C6.65408 18.511 6.73992 18.057 7.07488 17.8301C7.407 17.6031 7.86384 17.6889 8.09079 18.0211L11.4347 22.9319C11.5399 23.0869 11.681 23.206 11.8361 23.2891C11.9772 23.3638 12.1267 23.4081 12.2762 23.4191H19.3462C19.6534 23.4164 19.9302 23.2946 20.1296 23.0925C20.3316 22.8904 20.4562 22.6136 20.4562 22.3063C20.4562 21.9991 20.3317 21.7194 20.1296 21.5174C19.9275 21.3181 19.6507 21.1935 19.3434 21.1935H13.3254C13.0928 21.1907 12.8631 21.08 12.7218 20.8724L8.97927 15.3803C8.80486 15.1256 8.54187 14.9595 8.23464 14.9097C7.62566 15.181 6.9529 15.3332 6.24431 15.3332C5.63533 15.3332 5.04851 15.2197 4.50593 15.0148C4.13493 15.1532 3.81658 15.4079 3.57585 15.7401C3.31003 16.1083 3.13572 16.5679 3.08581 17.0661L2.71492 20.6537C2.67341 21.0551 2.31628 21.3485 1.91501 21.307C1.51365 21.2655 1.22019 20.9057 1.26169 20.5043L1.63259 16.9167C1.71013 16.1637 1.97859 15.4578 2.39656 14.882C2.59314 14.6136 2.82283 14.3727 3.08025 14.1679C1.98132 13.235 1.34187 11.8758 1.34187 10.4308V5.96279C1.34187 5.11846 1.68796 4.35166 2.24431 3.79531C2.79792 3.2417 3.56472 2.89561 4.40906 2.89561H8.0824C8.9239 2.89561 9.6907 3.2416 10.2471 3.79531C10.8036 4.35166 11.1468 5.11846 11.1468 5.96279V10.4307C11.1468 11.7705 10.5987 13.0438 9.63259 13.9685C9.84294 14.1317 10.0311 14.3283 10.1862 14.5553L13.71 19.7263H19.3432C20.0547 19.7263 20.6996 20.017 21.1646 20.4819C21.6324 20.9498 21.9203 21.5948 21.9203 22.3062C21.9203 22.7049 21.829 23.0813 21.6684 23.419H28.3314C28.1681 23.0813 28.0768 22.7049 28.0768 22.3062C28.0768 21.5948 28.3675 20.9498 28.8325 20.4819C29.3003 20.0169 29.9453 19.7263 30.6567 19.7263H36.2899L39.8111 14.5553C39.9689 14.3255 40.1571 14.129 40.3675 13.9685C40.3397 13.9436 40.3148 13.9187 40.2899 13.8937C39.4013 13.0051 38.8506 11.7787 38.8506 10.4306V5.96279C38.8506 5.11846 39.1966 4.35166 39.7503 3.79531C40.3065 3.2417 41.0734 2.89561 41.9176 2.89561H45.5883C46.4325 2.89561 47.1993 3.2416 47.7556 3.79531C48.312 4.35166 48.6553 5.11846 48.6553 5.96279V10.4307C48.6555 11.7345 48.1379 12.9719 47.216 13.8937ZM47.0029 11.5463C46.7566 11.5878 46.5212 11.6127 46.297 11.6237C45.1649 11.6818 44.3095 11.3829 43.6645 10.8625C43.0278 10.3504 42.6265 9.63896 42.3856 8.85557C42.3192 8.63965 42.2638 8.41543 42.2223 8.18848C41.7185 8.40439 41.0651 8.57051 40.315 8.49854V10.4308C40.315 11.3747 40.7026 12.2356 41.3255 12.8585C41.951 13.4813 42.8092 13.8689 43.7531 13.8689C44.6971 13.8689 45.558 13.4813 46.1807 12.8585C46.5461 12.493 46.8312 12.0445 47.0029 11.5463ZM40.3149 7.02852C41.3696 7.19463 42.1447 6.58838 42.2942 6.46104C42.4437 6.33369 42.5738 6.25615 42.7787 6.24785C43.1829 6.22852 43.5233 6.54131 43.5427 6.94268C43.5676 7.44922 43.6395 7.96133 43.7836 8.42637C43.944 8.95234 44.1961 9.41465 44.5807 9.72461C44.9572 10.0291 45.4915 10.2008 46.2304 10.1647C46.5183 10.1509 46.8394 10.1039 47.1911 10.0208V5.96279C47.1911 5.52266 47.0111 5.12119 46.7205 4.83057C46.4298 4.53984 46.0285 4.35996 45.5884 4.35996H41.9177C41.4775 4.35996 41.079 4.53984 40.7884 4.83057C40.4976 5.12119 40.3149 5.52256 40.3149 5.96279V7.02852ZM2.80915 10.021C3.16072 10.1041 3.47908 10.1511 3.7698 10.1649C4.50886 10.201 5.0404 10.0293 5.4196 9.7248C5.80163 9.41475 6.05632 8.95254 6.21687 8.42656C6.36081 7.96152 6.43005 7.44941 6.45495 6.94287C6.47429 6.5415 6.81755 6.22871 7.21892 6.24805C7.42927 6.25635 7.55671 6.33662 7.70613 6.46123C7.86394 6.59688 8.6362 7.19199 9.68259 7.02871V5.96279C9.68259 5.52266 9.50261 5.12119 9.21199 4.83057C8.92126 4.53984 8.5199 4.35996 8.08259 4.35996H4.40915C3.96902 4.35996 3.57038 4.53984 3.27976 4.83057C2.98904 5.12119 2.80915 5.52256 2.80915 5.96279V10.021ZM9.68249 8.49844C8.9323 8.57041 8.28181 8.4043 7.778 8.18838C7.73367 8.41533 7.68113 8.63955 7.61189 8.85547C7.37107 9.63887 6.9696 10.3503 6.33298 10.8624C5.6907 11.3828 4.83269 11.6818 3.70046 11.6236C3.47624 11.6126 3.24089 11.5876 2.99451 11.5462C3.16892 12.0444 3.45124 12.4929 3.81941 12.8583C4.44226 13.4812 5.30046 13.8687 6.24431 13.8687C7.19109 13.8687 8.04919 13.4812 8.67195 12.8583C9.2948 12.2354 9.6824 11.3745 9.6824 10.4306V8.49844H9.68249ZM45.4887 15.0148C44.949 15.2197 44.3648 15.3332 43.7531 15.3332C43.0444 15.3332 42.3717 15.181 41.7628 14.9097C41.4583 14.9567 41.1926 15.1283 41.0181 15.3803L37.2784 20.8724C37.1427 21.0717 36.9157 21.1907 36.6749 21.1935H30.6569C30.3497 21.1935 30.07 21.3181 29.8679 21.5174C29.6686 21.7194 29.5441 21.999 29.5441 22.3063C29.5441 22.6137 29.6686 22.8904 29.8679 23.0925C30.07 23.2945 30.3468 23.4163 30.6513 23.4191H37.7213C37.8735 23.4081 38.023 23.3638 38.1614 23.2891C38.3192 23.206 38.4576 23.087 38.5628 22.9319L41.9094 18.0211C42.1364 17.6889 42.5904 17.6031 42.9253 17.8301C43.2575 18.0571 43.3433 18.511 43.1163 18.846L41.0956 21.8107L41.8789 29.4095L48.1184 28.7673L46.9142 17.066C46.8616 16.5539 46.679 16.0806 46.3938 15.7068C46.1586 15.394 45.8487 15.1505 45.4887 15.0148ZM20.7912 5.64443C20.4867 5.38145 20.4508 4.91914 20.7109 4.61465C20.9739 4.30742 21.4362 4.27139 21.7407 4.53438L25.0792 7.38291L28.0882 5.63066C28.4368 5.42861 28.8853 5.54766 29.0874 5.89639C29.2894 6.24521 29.1705 6.69092 28.8217 6.89297L25.3669 8.9082C25.104 9.06045 24.7663 9.03828 24.5254 8.83066L20.7912 5.64443ZM23.515 14.3366C23.9081 14.4279 24.1545 14.8183 24.0632 15.2114C23.9746 15.6072 23.5814 15.8509 23.1885 15.7623C21.4002 15.3471 19.8445 14.3339 18.7427 12.9442C17.6603 11.5795 17.0154 9.85771 17.0154 7.98633C17.0154 5.78008 17.9094 3.78418 19.3545 2.33916C20.7994 0.894141 22.7953 0 24.9987 0C27.205 0 29.2008 0.894141 30.6458 2.33916C32.0908 3.78418 32.9848 5.77998 32.9848 7.98633C32.9848 9.85762 32.3371 11.5794 31.2575 12.9442C30.1558 14.3339 28.5973 15.3471 26.8119 15.7623C26.4189 15.8509 26.0258 15.6072 25.9344 15.2114C25.8459 14.8184 26.0923 14.428 26.4853 14.3366C27.9414 13.9989 29.212 13.1712 30.1117 12.0334C30.992 10.9233 31.5207 9.51709 31.5207 7.98633C31.5207 6.18418 30.7899 4.55371 29.6106 3.37451C28.4313 2.19521 26.801 1.46445 24.9988 1.46445C23.1995 1.46445 21.569 2.19521 20.3898 3.37451C19.2105 4.55371 18.4798 6.18418 18.4798 7.98633C18.4798 9.51709 19.0057 10.9234 19.886 12.0334C20.7884 13.1712 22.059 13.9989 23.515 14.3366ZM1.47488 36.247V48.1309H6.21677V36.247C4.63611 36.247 3.05554 36.247 1.47488 36.247ZM3.59529 34.7798C6.5573 34.7798 9.51921 34.7825 12.4783 34.7825C12.5586 34.777 12.6416 34.7853 12.7218 34.8074C13.1122 34.9099 13.3447 35.3112 13.2395 35.7016L10.5489 45.7226C10.405 46.2623 10.4603 46.7219 10.643 47.0817C10.8562 47.5025 11.2383 47.8125 11.6839 47.9842C12.1739 48.1725 12.7579 48.1918 13.2424 47.9814C13.7932 47.7462 14.106 47.2812 14.2555 46.722L17.843 33.3599C18.0009 32.7702 17.9233 32.1612 17.5164 31.6823C17.1011 31.1868 16.4479 30.946 15.8112 30.946H8.77175L1.72956 30.2207L1.46931 32.7619C1.41667 33.2796 1.64089 33.7807 2.00632 34.1405C2.43542 34.564 2.99734 34.7798 3.59529 34.7798ZM41.3005 30.9403H41.2865H41.2839H41.281L41.2672 30.9431H41.2644H41.2617H41.2478H41.2451H41.2424H41.2285V30.9458H34.1863C33.5414 30.9458 32.8992 31.1922 32.4811 31.6987C32.0936 32.1749 31.9995 32.7783 32.1573 33.3597L35.7421 46.7218C35.8943 47.281 36.2071 47.746 36.758 47.9813C37.2424 48.1916 37.8264 48.1723 38.3165 47.984C38.7593 47.8124 39.1442 47.5023 39.3573 47.0815C39.54 46.7217 39.5954 46.2621 39.4486 45.7224L36.7579 35.7015C36.6361 35.2419 36.9877 34.7797 37.4637 34.7797H46.4298C47.0111 34.7797 47.5758 34.5472 47.991 34.1402C48.3675 33.7721 48.5834 33.282 48.5308 32.7616L48.2678 30.2204L41.3005 30.9403ZM12.7108 24.8835V26.4005H37.2866V24.8835C29.0957 24.8835 20.9047 24.8835 12.7108 24.8835Z" fill="black"/>
</svg>
