<svg width="250" height="250" viewBox="0 0 250 250" fill="none" xmlns="http://www.w3.org/2000/svg">
<path d="M20.8335 24.9999V58.3333C20.8335 60.6343 22.6991 62.4999 25.0002 62.4999H58.3335C60.6345 62.4999 62.5002 60.6343 62.5002 58.3333V24.9999C62.5002 22.6989 60.6345 20.8333 58.3335 20.8333H25.0002C22.6991 20.8333 20.8335 22.6989 20.8335 24.9999ZM29.1668 29.1666H54.1668V54.1666H29.1668V29.1666Z" fill="white"/>
<path d="M191.667 62.4999H225C227.301 62.4999 229.167 60.6343 229.167 58.3333V24.9999C229.167 22.6989 227.301 20.8333 225 20.8333H191.667C189.366 20.8333 187.5 22.6989 187.5 24.9999V58.3333C187.5 60.6343 189.366 62.4999 191.667 62.4999ZM195.833 29.1666H220.833V54.1666H195.833V29.1666Z" fill="white"/>
<path d="M58.3335 187.5H25.0002C22.6991 187.5 20.8335 189.366 20.8335 191.667V225C20.8335 227.301 22.6991 229.167 25.0002 229.167H58.3335C60.6345 229.167 62.5002 227.301 62.5002 225V191.667C62.5002 189.366 60.6345 187.5 58.3335 187.5ZM54.1668 220.833H29.1668V195.833H54.1668V220.833Z" fill="white"/>
<path d="M45.8333 37.5H37.5V45.8333H45.8333V37.5Z" fill="white"/>
<path d="M8.33333 8.33333H41.6667V0H4.16667C1.86562 0 0 1.86562 0 4.16667V41.6667H8.33333V8.33333Z" fill="white"/>
<path d="M8.33333 208.333H0V245.833C0 248.134 1.86562 250 4.16667 250H41.6667V241.667H8.33333V208.333Z" fill="white"/>
<path d="M245.833 0H208.333V8.33333H241.667V41.6667H250V4.16667C250 1.86562 248.135 0 245.833 0Z" fill="white"/>
<path d="M241.667 241.667H216.667V250H245.833C248.134 250 250 248.134 250 245.833V208.333H241.667V241.667Z" fill="white"/>
<path d="M212.5 37.5H204.167V45.8333H212.5V37.5Z" fill="white"/>
<path d="M45.8333 204.167H37.5V212.5H45.8333V204.167Z" fill="white"/>
<path d="M79.1668 37.5H70.8335V45.8333H79.1668V37.5Z" fill="white"/>
<path d="M137.5 37.5H129.167V45.8333H137.5V37.5Z" fill="white"/>
<path d="M145.833 37.5V54.1667H162.5V45.8333H154.167V37.5H145.833Z" fill="white"/>
<path d="M87.4998 37.4999V45.8333H95.8332V37.4999V29.1666H162.5V37.4999H170.833V29.1666V20.8333H79.1665V29.1666H87.4998V37.4999Z" fill="white"/>
<path d="M79.1668 54.1667H70.8335V70.8334H79.1668V54.1667Z" fill="white"/>
<path d="M87.4998 70.8333H79.1665V79.1666H87.4998V70.8333Z" fill="white"/>
<path d="M87.5 54.1667V62.5H95.8333V70.8333H112.5V54.1667H116.667V45.8333H120.833V37.5H104.167V45.8333H108.333V54.1667H87.5Z" fill="white"/>
<path d="M129.167 62.5H120.833V70.8333H129.167V62.5Z" fill="white"/>
<path d="M166.667 104.167H175V95.8333H183.333V87.5H166.667V104.167Z" fill="white"/>
<path d="M137.5 54.1667H129.167V62.5001H137.5V54.1667Z" fill="white"/>
<path d="M104.167 195.833V187.5H95.8333V179.167H87.5V195.833H104.167Z" fill="white"/>
<path d="M179.167 45.8333H170.833V54.1666H179.167V45.8333Z" fill="white"/>
<path d="M183.333 62.5H166.667V79.1667H183.333V62.5Z" fill="white"/>
<path d="M20.8335 170.833H29.1668V137.5H37.5002V129.167H20.8335V170.833Z" fill="white"/>
<path d="M62.5002 70.8333H20.8335V79.1666H62.5002V70.8333Z" fill="white"/>
<path d="M37.5002 87.5H20.8335V112.5H29.1668V104.167H37.5002V87.5Z" fill="white"/>
<path d="M104.167 129.167V120.833H112.5V104.167H120.833V95.8334H129.167V87.5001H120.833V79.1667H112.5V87.5001V95.8334H104.167V87.5001H87.5V104.167H95.8333V129.167H104.167Z" fill="white"/>
<path d="M70.8335 229.167H79.1668V220.833H91.6668V229.167H100V220.833H104.167V212.5H79.1668V204.167H70.8335V229.167Z" fill="white"/>
<path d="M158.333 141.667V133.333H166.667V125H175V108.333H150V125H141.667V133.333H150V141.667H158.333Z" fill="white"/>
<path d="M145.833 91.6667H154.167V83.3333H145.833V75H137.5V100H145.833V91.6667Z" fill="white"/>
<path d="M62.5002 87.5H45.8335V95.8333H62.5002V87.5Z" fill="white"/>
<path d="M79.1668 87.5H70.8335V95.8333H79.1668V87.5Z" fill="white"/>
<path d="M54.1668 129.167H45.8335V137.5H54.1668V129.167Z" fill="white"/>
<path d="M79.1668 137.5H70.8335V145.833H79.1668V137.5Z" fill="white"/>
<path d="M87.4998 129.167H79.1665V137.5H87.4998V129.167Z" fill="white"/>
<path d="M87.4998 195.833H79.1665V204.167H87.4998V195.833Z" fill="white"/>
<path d="M45.8333 112.5H37.5V120.833H45.8333V112.5Z" fill="white"/>
<path d="M62.5002 104.167H45.8335V112.5H62.5002V104.167Z" fill="white"/>
<path d="M70.8333 112.5H62.5V120.833H70.8333V112.5Z" fill="white"/>
<path d="M137.5 108.333H129.167V116.667H137.5V108.333Z" fill="white"/>
<path d="M129.167 116.667H120.833V125H129.167V116.667Z" fill="white"/>
<path d="M141.667 137.5H133.333V145.833H141.667V137.5Z" fill="white"/>
<path d="M204.167 129.167H187.5V137.5H204.167V129.167Z" fill="white"/>
<path d="M212.5 137.5H204.167V145.833H212.5V137.5Z" fill="white"/>
<path d="M125 137.5H116.667V145.833H125V137.5Z" fill="white"/>
<path d="M112.5 137.5H95.8333V145.833H87.5V154.167H104.167V145.833H112.5V137.5Z" fill="white"/>
<path d="M120.833 220.833H112.5V229.167H129.167V220.833H137.5V212.5H120.833V220.833Z" fill="white"/>
<path d="M162.5 212.5V220.833H154.167V229.167H170.833V220.833H179.167V212.5H162.5Z" fill="white"/>
<path d="M200 87.4999V79.1666H208.333V70.8333H191.667V79.1666H183.333V87.4999H200Z" fill="white"/>
<path d="M133.333 166.667H125V175H133.333V166.667Z" fill="white"/>
<path d="M133.333 183.333H125V191.667H133.333V183.333Z" fill="white"/>
<path d="M120.833 204.167H112.5V212.5H120.833V204.167Z" fill="white"/>
<path d="M116.667 166.667V158.333H108.333V166.667V175H116.667V166.667Z" fill="white"/>
<path d="M141.667 191.667H133.333V200H141.667V191.667Z" fill="white"/>
<path d="M195.833 220.833H179.167V229.167H204.167V212.5H195.833V220.833Z" fill="white"/>
<path d="M204.167 195.833H195.833V204.167H204.167V195.833Z" fill="white"/>
<path d="M187.5 195.833H179.167V204.167H187.5V195.833Z" fill="white"/>
<path d="M170.833 195.833H162.5V204.167H170.833V195.833Z" fill="white"/>
<path d="M179.167 187.5H170.833V195.833H179.167V187.5Z" fill="white"/>
<path d="M154.167 212.5H145.833V220.833H154.167V212.5Z" fill="white"/>
<path d="M79.1668 120.833H70.8335V129.167H79.1668V120.833Z" fill="white"/>
<path d="M220.833 229.167H229.167V204.167H212.5V212.5H220.833V229.167Z" fill="white"/>
<path d="M220.833 187.5H212.5V195.833H220.833V187.5Z" fill="white"/>
<path d="M229.167 154.167H220.833V170.833H212.5V179.167H229.167V154.167Z" fill="white"/>
<path d="M229.167 137.5H220.833V145.833H229.167V137.5Z" fill="white"/>
<path d="M229.167 70.8333H220.833V108.333H204.167V99.9999H187.5V116.667H220.833V129.167H229.167V70.8333Z" fill="white"/>
<path d="M166.667 183.333V166.667H158.333V150H133.333V166.667H141.667V183.333H166.667Z" fill="white"/>
<path d="M70.8333 145.833H37.5V179.167H54.1667V170.833H45.8333V162.5H62.5V187.5H70.8333V179.167H87.5V170.833H79.1667V162.5H87.5V154.167H70.8333V145.833Z" fill="white"/>
<path d="M212.5 154.167H195.833V145.833H179.167V162.5H187.5V187.5H195.833V179.167H204.167V162.5H212.5V154.167Z" fill="white"/>
</svg>
