<svg width="48" height="50" viewBox="0 0 48 50" fill="none" xmlns="http://www.w3.org/2000/svg">
<path d="M22.0493 4.13761C22.1173 4.1995 22.1971 4.24716 22.2838 4.27778C22.3705 4.30841 22.4625 4.32138 22.5543 4.31593C23.6108 4.26652 24.6695 4.29142 25.7225 4.39044C25.745 4.39236 25.7673 4.39336 25.7894 4.39342C25.9702 4.39229 26.1436 4.32186 26.2739 4.19666C26.4043 4.07146 26.4816 3.90103 26.49 3.72049C26.4984 3.53995 26.4373 3.36306 26.3191 3.22629C26.201 3.08952 26.0349 3.00328 25.855 2.98535C24.736 2.88007 23.6109 2.85366 22.4882 2.90631C22.3483 2.91312 22.2135 2.96133 22.1011 3.04482C21.9886 3.12831 21.9035 3.24332 21.8564 3.37526C21.8094 3.50721 21.8027 3.65014 21.837 3.78594C21.8713 3.92174 21.9452 4.04428 22.0493 4.13802V4.13761Z" fill="black"/>
<path d="M15.0971 5.92598C15.187 5.92581 15.276 5.90837 15.3594 5.87459C16.3406 5.48178 17.3488 5.15987 18.3762 4.91135C18.5581 4.86739 18.7152 4.75295 18.8128 4.5932C18.9103 4.43345 18.9405 4.24148 18.8965 4.05951C18.8526 3.87755 18.7381 3.7205 18.5784 3.62291C18.4186 3.52532 18.2267 3.49519 18.0447 3.53914C16.9514 3.8036 15.8786 4.14622 14.8344 4.56437C14.6821 4.62539 14.5559 4.73752 14.4773 4.88149C14.3988 5.02547 14.3728 5.19231 14.4039 5.35336C14.435 5.5144 14.5212 5.65959 14.6477 5.76399C14.7742 5.8684 14.9331 5.92549 15.0971 5.92547V5.92598Z" fill="black"/>
<path d="M11.6094 7.81162C11.6885 7.762 11.757 7.69716 11.8109 7.62086C11.8648 7.54457 11.903 7.45833 11.9233 7.36716C11.9437 7.27598 11.9457 7.18168 11.9293 7.08972C11.9129 6.99775 11.8784 6.90996 11.8279 6.83142C11.7773 6.75288 11.7116 6.68516 11.6347 6.63218C11.5578 6.57921 11.4711 6.54203 11.3796 6.5228C11.2882 6.50358 11.1939 6.50269 11.1022 6.52018C11.0104 6.53768 10.923 6.57321 10.8451 6.62473C9.90017 7.23358 8.99959 7.90864 8.15013 8.64485C8.0801 8.70559 8.02272 8.77952 7.98126 8.86244C7.9398 8.94535 7.91509 9.03562 7.90851 9.12808C7.90194 9.22055 7.91365 9.3134 7.94296 9.40135C7.97228 9.48929 8.01863 9.5706 8.07936 9.64063C8.1401 9.71066 8.21404 9.76804 8.29695 9.80949C8.37986 9.85095 8.47013 9.87567 8.5626 9.88224C8.74934 9.89551 8.93371 9.83405 9.07514 9.71139C9.87395 9.01907 10.7208 8.38423 11.6094 7.81162Z" fill="black"/>
<path d="M32.031 3.32008C31.9166 3.23185 31.7787 3.17951 31.6346 3.16967C31.4905 3.15982 31.3468 3.19292 31.2215 3.26478C31.0962 3.33664 30.995 3.44403 30.9308 3.57337C30.8665 3.70271 30.842 3.84821 30.8605 3.99145C30.8789 4.1347 30.9393 4.26927 31.0342 4.37815C31.1291 4.48704 31.2542 4.56534 31.3935 4.60317C31.5329 4.641 31.6804 4.63665 31.8173 4.59068C31.9542 4.54471 32.0744 4.45917 32.1628 4.34489C32.2809 4.19142 32.3334 3.99734 32.3087 3.80522C32.284 3.6131 32.1841 3.43863 32.0309 3.32008H32.031Z" fill="black"/>
<path d="M33.8341 4.71289C33.7003 4.60958 33.5348 4.55585 33.3658 4.56087C33.1968 4.56589 33.0348 4.62934 32.9074 4.74041C32.7799 4.85149 32.6949 5.00331 32.6669 5.17002C32.6388 5.33673 32.6694 5.50802 32.7535 5.65469C32.8376 5.80136 32.9699 5.91435 33.1279 5.9744C33.2859 6.03446 33.4599 6.03786 33.6202 5.98404C33.7804 5.93022 33.9171 5.82249 34.0068 5.67922C34.0965 5.53595 34.1338 5.366 34.1123 5.19832C34.0876 5.00599 33.9875 4.83135 33.834 4.71279L33.8341 4.71289Z" fill="black"/>
<path d="M35.6373 6.10577C35.5035 6.00253 35.338 5.94887 35.1691 5.95394C35.0002 5.95901 34.8382 6.02249 34.7108 6.13357C34.5835 6.24465 34.4986 6.39645 34.4705 6.56311C34.4425 6.72978 34.4732 6.901 34.5573 7.04761C34.6413 7.19421 34.7736 7.30713 34.9316 7.36713C35.0896 7.42713 35.2635 7.4305 35.4237 7.37666C35.5839 7.32282 35.7205 7.2151 35.8102 7.07186C35.8999 6.92862 35.9371 6.75871 35.9156 6.59109C35.9035 6.49583 35.8727 6.4039 35.8249 6.32061C35.7771 6.23731 35.7133 6.1643 35.6372 6.10577H35.6373Z" fill="black"/>
<path d="M37.4414 7.49893C37.327 7.4106 37.189 7.35818 37.0449 7.34827C36.9007 7.33837 36.7568 7.37145 36.6315 7.44331C36.5061 7.51517 36.4048 7.6226 36.3405 7.752C36.2762 7.88141 36.2517 8.02698 36.2701 8.17031C36.2885 8.31364 36.349 8.44829 36.444 8.55724C36.5389 8.66618 36.664 8.74453 36.8035 8.78237C36.9429 8.82022 37.0905 8.81585 37.2275 8.76983C37.3645 8.72382 37.4847 8.63821 37.5731 8.52384C37.6914 8.37033 37.744 8.17609 37.7192 7.98382C37.6944 7.79156 37.5943 7.617 37.4409 7.49852L37.4414 7.49893Z" fill="black"/>
<path d="M28.8464 48.0689C27.8187 48.3171 26.7745 48.4914 25.7219 48.5906C25.5415 48.6078 25.3745 48.6938 25.2557 48.8307C25.1369 48.9676 25.0754 49.145 25.0838 49.3261C25.0922 49.5072 25.1699 49.6781 25.3009 49.8034C25.4319 49.9287 25.6061 49.9988 25.7874 49.9992C25.8095 49.9992 25.8319 49.9982 25.8544 49.9961C26.9739 49.8903 28.0844 49.7048 29.1776 49.4411C29.2677 49.4194 29.3526 49.38 29.4275 49.3254C29.5024 49.2708 29.5659 49.202 29.6142 49.1229C29.6625 49.0438 29.6947 48.9559 29.7091 48.8643C29.7235 48.7728 29.7197 48.6793 29.6979 48.5891C29.6761 48.499 29.6368 48.4141 29.5822 48.3392C29.5276 48.2643 29.4588 48.2008 29.3796 48.1525C29.3005 48.1042 29.2127 48.072 29.1211 48.0576C29.0295 48.0432 28.936 48.0471 28.8459 48.0688L28.8464 48.0689Z" fill="black"/>
<path d="M21.5006 48.5912C20.448 48.4918 19.4038 48.3175 18.3761 48.0696C18.1941 48.0256 18.0021 48.0557 17.8423 48.1533C17.6826 48.2509 17.5681 48.4079 17.5241 48.5899C17.4802 48.7719 17.5103 48.9639 17.6079 49.1237C17.7055 49.2834 17.8625 49.3979 18.0445 49.4419C19.1377 49.7056 20.2482 49.8911 21.3678 49.9969C21.3903 49.9989 21.4125 49.9999 21.4346 49.9999C21.615 49.9983 21.788 49.9277 21.9179 49.8025C22.0479 49.6773 22.125 49.5072 22.1334 49.3269C22.1418 49.1467 22.0808 48.9701 21.9631 48.8334C21.8453 48.6967 21.6796 48.6103 21.5002 48.5919L21.5006 48.5912Z" fill="black"/>
<path d="M42.3887 12.51C42.251 12.487 42.1096 12.5053 41.9824 12.5627C41.8551 12.62 41.7477 12.7138 41.6737 12.8322C41.5997 12.9505 41.5625 13.0882 41.5667 13.2277C41.571 13.3672 41.6165 13.5024 41.6975 13.616C42.3111 14.4766 42.8627 15.3798 43.3481 16.3186C43.3893 16.4031 43.4471 16.4784 43.5178 16.5403C43.5886 16.6021 43.6711 16.6492 43.7603 16.6788C43.8495 16.7083 43.9438 16.7197 44.0375 16.7124C44.1312 16.705 44.2225 16.679 44.306 16.6359C44.3896 16.5927 44.4636 16.5334 44.5239 16.4612C44.5841 16.3891 44.6294 16.3056 44.6569 16.2157C44.6845 16.1259 44.6938 16.0314 44.6844 15.9379C44.675 15.8444 44.6469 15.7537 44.602 15.6711C44.0859 14.6726 43.4994 13.7121 42.847 12.7969C42.7934 12.7211 42.7253 12.6568 42.6466 12.6075C42.568 12.5583 42.4803 12.5251 42.3887 12.51Z" fill="black"/>
<path d="M35.6116 45.1697C34.7232 45.7416 33.795 46.2493 32.8343 46.6889C32.75 46.7274 32.6741 46.7822 32.6109 46.8501C32.5478 46.918 32.4986 46.9976 32.4663 47.0845C32.4339 47.1714 32.419 47.2638 32.4223 47.3564C32.4257 47.449 32.4473 47.5401 32.4858 47.6244C32.5243 47.7087 32.5791 47.7846 32.647 47.8478C32.7149 47.9109 32.7945 47.9601 32.8814 47.9924C32.9683 48.0248 33.0607 48.0397 33.1533 48.0364C33.246 48.033 33.337 48.0115 33.4213 47.9729C34.4435 47.5051 35.4309 46.965 36.3761 46.3567C36.5315 46.2545 36.6402 46.095 36.6787 45.9131C36.7172 45.7311 36.6823 45.5413 36.5816 45.3849C36.4809 45.2286 36.3226 45.1182 36.1411 45.0779C35.9595 45.0376 35.7694 45.0706 35.612 45.1697H35.6116Z" fill="black"/>
<path d="M42.0522 40.0966C41.9794 40.0392 41.896 39.9967 41.8067 39.9716C41.7175 39.9465 41.6242 39.9392 41.5322 39.9501C41.4401 39.9611 41.3511 39.99 41.2703 40.0354C41.1894 40.0807 41.1183 40.1415 41.061 40.2144C40.4064 41.045 39.6939 41.8282 38.9287 42.5581C38.7941 42.6875 38.7162 42.865 38.7121 43.0517C38.708 43.2384 38.7781 43.4191 38.9069 43.5542C39.0358 43.6894 39.213 43.768 39.3997 43.7728C39.5863 43.7776 39.7673 43.7082 39.903 43.5799C40.7165 42.8037 41.4741 41.9708 42.17 41.0876C42.2855 40.9404 42.3381 40.7535 42.316 40.5677C42.2939 40.3819 42.199 40.2125 42.0522 40.0966Z" fill="black"/>
<path d="M45.5873 23.3311C45.6119 23.499 45.6958 23.6524 45.8239 23.7637C45.9519 23.8749 46.1156 23.9366 46.2853 23.9375C46.3188 23.9374 46.3523 23.9351 46.3856 23.9304C46.5708 23.9038 46.7379 23.8048 46.8503 23.6551C46.9626 23.5054 47.011 23.3173 46.9848 23.132C46.826 22.0186 46.5878 20.918 46.2718 19.8387C46.2191 19.659 46.0973 19.5077 45.933 19.4179C45.7688 19.3281 45.5756 19.3073 45.3959 19.3599C45.2163 19.4126 45.0649 19.5345 44.9752 19.6987C44.8854 19.863 44.8645 20.0562 44.9172 20.2358C45.2141 21.2503 45.438 22.2847 45.5873 23.3311Z" fill="black"/>
<path d="M45.4933 33.3162C45.3164 33.2551 45.1224 33.2667 44.9541 33.3485C44.7857 33.4303 44.6567 33.5756 44.5954 33.7525C44.2494 34.7519 43.8321 35.7252 43.3468 36.665C43.3012 36.7476 43.2726 36.8385 43.2627 36.9323C43.2528 37.0261 43.2618 37.121 43.2892 37.2113C43.3166 37.3016 43.3619 37.3855 43.4223 37.458C43.4826 37.5305 43.557 37.5902 43.6408 37.6335C43.7246 37.6767 43.8163 37.7028 43.9104 37.7101C44.0045 37.7173 44.0991 37.7056 44.1885 37.6757C44.278 37.6458 44.3606 37.5982 44.4314 37.5358C44.5022 37.4734 44.5598 37.3975 44.6007 37.3125C45.117 36.3126 45.561 35.277 45.9292 34.2136C45.9595 34.126 45.9723 34.0333 45.9668 33.9408C45.9612 33.8482 45.9376 33.7577 45.8971 33.6743C45.8565 33.591 45.8 33.5164 45.7307 33.4549C45.6614 33.3934 45.5806 33.3461 45.493 33.3158L45.4933 33.3162Z" fill="black"/>
<path d="M0.982705 22.8476C1.07375 22.8651 1.16734 22.8644 1.25813 22.8457C1.34893 22.827 1.43515 22.7906 1.51186 22.7385C1.58857 22.6865 1.65428 22.6198 1.70522 22.5424C1.75616 22.4649 1.79133 22.3782 1.80874 22.2871C2.0079 21.2489 2.2812 20.2263 2.62655 19.2272C2.68775 19.0503 2.67616 18.8563 2.59434 18.688C2.51252 18.5196 2.36717 18.3906 2.19026 18.3294C2.01335 18.2682 1.81937 18.2798 1.65101 18.3616C1.48264 18.4435 1.35368 18.5888 1.29248 18.7657C0.924988 19.8287 0.634166 20.9167 0.42225 22.0213C0.387071 22.2051 0.426349 22.3954 0.531448 22.5503C0.636548 22.7052 0.798863 22.812 0.982705 22.8473V22.8476Z" fill="black"/>
<path d="M14.388 46.6892C13.4264 46.2489 12.4973 45.7406 11.608 45.1681C11.4506 45.0667 11.2595 45.032 11.0765 45.0716C10.8935 45.1113 10.7338 45.2219 10.6324 45.3793C10.5311 45.5367 10.4964 45.7279 10.536 45.9108C10.5756 46.0938 10.6863 46.2535 10.8437 46.3549C11.7896 46.9638 12.7778 47.5045 13.8007 47.9727C13.8926 48.0152 13.9927 48.0371 14.0939 48.037C14.2551 48.037 14.4114 47.982 14.5369 47.8809C14.6625 47.7798 14.7496 47.6389 14.784 47.4814C14.8183 47.324 14.7978 47.1595 14.7257 47.0154C14.6537 46.8712 14.5345 46.7561 14.388 46.689V46.6892Z" fill="black"/>
<path d="M1.63476 29.6503C1.48615 28.6032 1.41162 27.547 1.41173 26.4895C1.41279 26.3961 1.39529 26.3034 1.36026 26.2168C1.32523 26.1302 1.27336 26.0514 1.20766 25.985C1.14196 25.9186 1.06373 25.8659 0.977506 25.83C0.891285 25.794 0.798787 25.7756 0.705373 25.7756C0.611959 25.7757 0.519488 25.7943 0.433319 25.8304C0.34715 25.8665 0.268998 25.9193 0.203392 25.9858C0.137785 26.0523 0.0860304 26.1311 0.0511266 26.2178C0.0162228 26.3044 -0.00113554 26.3971 5.75842e-05 26.4905C1.67769e-05 27.6144 0.0792851 28.7368 0.237272 29.8495C0.261852 30.0173 0.345773 30.1708 0.473811 30.282C0.601849 30.3933 0.765523 30.4549 0.935142 30.4559C0.968736 30.4558 1.00228 30.4534 1.03556 30.4488C1.22078 30.4221 1.38788 30.3231 1.5002 30.1734C1.61252 30.0237 1.66091 29.8356 1.63476 29.6503Z" fill="black"/>
<path d="M46.5161 25.7845C46.3289 25.7848 46.1495 25.8592 46.0172 25.9915C45.8849 26.1238 45.8104 26.3032 45.8102 26.4903C45.8102 27.5478 45.7357 28.6039 45.5871 29.6509C45.5607 29.8362 45.609 30.0244 45.7214 30.1742C45.8338 30.3239 46.001 30.4229 46.1863 30.4493C46.2196 30.4539 46.2531 30.4563 46.2867 30.4564C46.4563 30.4555 46.62 30.3938 46.748 30.2826C46.8761 30.1713 46.96 30.0178 46.9846 29.85C47.1426 28.7371 47.2218 27.6144 47.2218 26.4903C47.2216 26.3032 47.1472 26.1238 47.0149 25.9915C46.8826 25.8592 46.7032 25.7848 46.5161 25.7845Z" fill="black"/>
<path d="M2.62629 33.7519C2.56508 33.575 2.4361 33.4296 2.26772 33.3478C2.09935 33.266 1.90537 33.2544 1.72846 33.3157C1.55155 33.3769 1.40621 33.5058 1.32439 33.6742C1.24258 33.8426 1.23101 34.0366 1.29222 34.2135C1.66027 35.2763 2.10397 36.3113 2.61992 37.3107C2.66118 37.3952 2.71891 37.4706 2.7897 37.5324C2.86049 37.5942 2.94293 37.6413 3.03216 37.6709C3.1214 37.7004 3.21564 37.7119 3.30935 37.7045C3.40306 37.6971 3.49436 37.6711 3.57788 37.628C3.66141 37.5849 3.73547 37.5255 3.79573 37.4533C3.85599 37.3812 3.90124 37.2977 3.9288 37.2079C3.95637 37.118 3.96571 37.0235 3.95627 36.93C3.94682 36.8365 3.91879 36.7458 3.87382 36.6632C3.38902 35.7238 2.97211 34.7509 2.62629 33.7519Z" fill="black"/>
<path d="M6.1589 40.2123C6.10154 40.1395 6.0304 40.0787 5.94953 40.0334C5.86867 39.9881 5.77966 39.9591 5.68761 39.9482C5.59555 39.9372 5.50224 39.9445 5.41301 39.9697C5.32378 39.9948 5.24037 40.0373 5.16755 40.0946C5.09472 40.152 5.03391 40.2231 4.98858 40.304C4.94325 40.3849 4.9143 40.4739 4.90336 40.5659C4.89243 40.658 4.89974 40.7513 4.92487 40.8405C4.94999 40.9297 4.99245 41.0131 5.04981 41.086C5.74551 41.969 6.50287 42.8018 7.3162 43.5778C7.4521 43.7046 7.63252 43.7727 7.81828 43.7672C8.00405 43.7618 8.18018 43.6833 8.30845 43.5488C8.43672 43.4144 8.50678 43.2347 8.50343 43.0489C8.50008 42.8631 8.42358 42.6861 8.29054 42.5563C7.52555 41.8263 6.81322 41.043 6.1589 40.2123Z" fill="black"/>
<path d="M6.04303 11.7758C5.89586 11.6602 5.70889 11.6077 5.52309 11.6298C5.33729 11.6519 5.16783 11.7467 5.05183 11.8935C4.35617 12.7773 3.7242 13.7094 3.1607 14.6828C3.0987 14.79 3.06601 14.9117 3.06592 15.0356C3.06583 15.1595 3.09833 15.2812 3.16017 15.3886C3.22202 15.4959 3.31101 15.5851 3.41823 15.6472C3.52545 15.7093 3.64711 15.742 3.771 15.7422C3.89484 15.742 4.01645 15.7093 4.12374 15.6474C4.23103 15.5856 4.32025 15.4967 4.38253 15.3897C4.91226 14.4744 5.50645 13.598 6.16061 12.7672C6.27621 12.62 6.32875 12.433 6.30671 12.2472C6.28467 12.0613 6.18985 11.8918 6.04303 11.7758Z" fill="black"/>
<path d="M39.2739 15.4296C39.4748 15.4844 39.6873 15.4782 39.8847 15.4119C40.082 15.3456 40.2551 15.2221 40.3821 15.0571C40.4258 15.0006 40.4594 14.9368 40.4813 14.8688L41.5059 11.6782L44.3403 9.87276C44.4005 9.83451 44.4536 9.78606 44.4972 9.72959C44.6192 9.57142 44.6937 9.3818 44.712 9.18288C44.7302 8.98395 44.6915 8.78393 44.6003 8.60619C44.5092 8.42844 44.3693 8.28031 44.1971 8.17909C44.0249 8.07787 43.8274 8.02774 43.6278 8.03456L40.3333 7.59405L38.6847 6.32113L40.9489 3.38966C41.029 3.28611 41.0878 3.16781 41.1221 3.04152C41.1564 2.91523 41.1655 2.78341 41.1488 2.65361C41.1322 2.52381 41.0901 2.39856 41.025 2.28501C40.96 2.17147 40.8732 2.07186 40.7696 1.99187L40.0604 1.44405C39.8083 1.25015 39.497 1.14927 39.1791 1.15848C38.8611 1.1677 38.5562 1.28644 38.3157 1.49462L35.5498 3.89965L31.1769 0.521919C30.6488 0.115549 29.9811 -0.064682 29.3202 0.0207879C28.6594 0.106258 28.0595 0.450444 27.6521 0.977796C27.2448 1.50515 27.0634 2.17257 27.1477 2.83356C27.2319 3.49456 27.575 4.0951 28.1016 4.50338L32.4745 7.88101L30.8468 11.165C30.7061 11.4502 30.6683 11.7752 30.7397 12.085C30.811 12.3949 30.9872 12.6706 31.2385 12.8655L31.9476 13.4136C32.1212 13.5484 32.3348 13.6216 32.5547 13.6215C32.5978 13.6215 32.6409 13.6187 32.6836 13.6132C32.8135 13.5969 32.9388 13.555 33.0524 13.4899C33.166 13.4248 33.2655 13.3378 33.3452 13.2341L35.6096 10.3025L37.2582 11.5759L38.5224 14.6452C38.5642 14.8321 38.6563 15.004 38.7888 15.1422C38.9212 15.2805 39.089 15.3799 39.2739 15.4296ZM38.3358 10.9535C38.2946 10.8536 38.228 10.7663 38.1425 10.7003L34.9738 8.25317C34.9096 8.20366 34.8364 8.16727 34.7582 8.14606C34.6801 8.12486 34.5985 8.11926 34.5181 8.12958C34.4378 8.13991 34.3603 8.16596 34.29 8.20625C34.2197 8.24653 34.1581 8.30026 34.1086 8.36438C34.0591 8.42849 34.0227 8.50172 34.0015 8.5799C33.9803 8.65808 33.9747 8.73966 33.985 8.82C33.9953 8.90035 34.0214 8.97787 34.0616 9.04814C34.1019 9.11841 34.1557 9.18006 34.2198 9.22957L34.6334 9.54901L32.5138 12.2932L31.9919 11.89C31.9658 11.8698 31.9474 11.8413 31.9399 11.8091C31.9324 11.7769 31.9363 11.7432 31.9508 11.7135L33.804 7.97597C33.8673 7.84826 33.8844 7.70255 33.8524 7.56365C33.8204 7.42474 33.7413 7.30121 33.6285 7.21407L28.8555 3.52728C28.5864 3.31942 28.4109 3.01316 28.3676 2.67588C28.3242 2.3386 28.4167 1.99793 28.6245 1.7288C28.8324 1.45968 29.1387 1.28415 29.4759 1.24083C29.8132 1.19751 30.1539 1.28995 30.423 1.49781L35.196 5.18449C35.3088 5.27164 35.4483 5.31701 35.5908 5.31287C35.7334 5.30872 35.87 5.25533 35.9776 5.16178L39.1248 2.42518C39.1498 2.40348 39.1815 2.39109 39.2146 2.39014C39.2477 2.38918 39.2801 2.39971 39.3063 2.41994L39.8281 2.82294L37.7086 5.56714L37.295 5.2477C37.2309 5.1982 37.1577 5.16181 37.0795 5.14061C37.0013 5.11942 36.9198 5.11382 36.8394 5.12415C36.7591 5.13449 36.6816 5.16054 36.6113 5.20083C36.541 5.24112 36.4794 5.29485 36.4299 5.35896C36.3804 5.42307 36.344 5.49631 36.3228 5.57448C36.3016 5.65265 36.296 5.73424 36.3063 5.81457C36.3167 5.89491 36.3427 5.97243 36.383 6.04269C36.4233 6.11296 36.477 6.1746 36.5411 6.2241L39.7099 8.67179C39.7958 8.73817 39.8976 8.78071 40.0052 8.79512L43.0903 9.20727L40.6555 10.7581C40.5342 10.8354 40.4437 10.9526 40.3997 11.0896L39.5199 13.8293L38.3358 10.9535Z" fill="black"/>
<path d="M23.611 11.6945C15.4524 11.6945 8.81494 18.3319 8.81494 26.4904C8.81494 34.6489 15.4524 41.2865 23.611 41.2865C31.7696 41.2865 38.4071 34.649 38.4071 26.4904C38.4071 18.3318 31.7696 11.6945 23.611 11.6945ZM10.0483 26.4904C10.0483 19.1867 15.8517 13.214 23.0893 12.9388L23.7205 16.7767C23.7489 16.9502 23.7264 17.1281 23.6557 17.2891C23.585 17.45 23.4691 17.587 23.3221 17.6834L20.9404 19.243C20.585 19.4746 20.3067 19.807 20.1411 20.1976C19.9754 20.5881 19.93 21.0192 20.0105 21.4358L20.3306 23.1123C20.394 23.4407 20.5331 23.7498 20.737 24.015C20.9408 24.2801 21.2037 24.4941 21.5048 24.6398L23.1781 25.4455C23.3566 25.5319 23.502 25.6743 23.5922 25.8509C23.6823 26.0275 23.7123 26.2288 23.6776 26.424L23.0679 29.8101C23.0428 29.9489 22.9858 30.0799 22.9014 30.1929C22.8074 30.3187 22.6824 30.4179 22.5385 30.4809C22.3947 30.5438 22.2369 30.5684 22.0808 30.5522C21.9246 30.5359 21.7753 30.4794 21.6475 30.3882C21.5196 30.297 21.4177 30.1742 21.3515 30.0318L20.7381 28.7118C20.5655 28.3423 20.2912 28.0296 19.9474 27.8102C19.6036 27.5908 19.2044 27.4739 18.7965 27.473H16.3166C15.8763 27.4723 15.4465 27.6081 15.0865 27.8616L13.4189 29.0324C13.314 29.1062 13.1945 29.1568 13.0685 29.181C12.9424 29.2052 12.8127 29.2024 12.6879 29.1727L10.2101 28.5845C10.1023 27.8917 10.0482 27.1916 10.0483 26.4904ZM30.5648 33.8739L30.9996 37.8583C28.8028 39.2934 26.235 40.0561 23.611 40.0532C17.3161 40.0532 12.0095 35.7422 10.4874 29.9176L12.403 30.3724C12.6975 30.4422 13.0035 30.4488 13.3007 30.3918C13.598 30.3348 13.8798 30.2155 14.1276 30.0417L15.7951 28.8711C15.9477 28.7637 16.1299 28.7063 16.3166 28.7067H18.7965C18.9695 28.707 19.1387 28.7566 19.2845 28.8496C19.4302 28.9426 19.5465 29.0752 19.6197 29.2319L20.233 30.5519C20.3876 30.8888 20.6278 31.1794 20.9296 31.3947C21.2314 31.61 21.5843 31.7425 21.9532 31.7791C22.0288 31.787 22.1047 31.7909 22.1807 31.791C22.5129 31.7915 22.8405 31.7141 23.1372 31.5649C23.4339 31.4157 23.6915 31.1989 23.8891 30.932C24.0881 30.6654 24.2225 30.3563 24.2818 30.029L24.8914 26.643C24.9733 26.1824 24.9026 25.7076 24.6899 25.2909C24.4772 24.8742 24.1342 24.5384 23.7132 24.3345L22.0398 23.5289C21.9122 23.4671 21.8008 23.3764 21.7144 23.264C21.628 23.1516 21.569 23.0206 21.5421 22.8813L21.2219 21.2047C21.1878 21.0281 21.207 20.8454 21.2773 20.6798C21.3475 20.5142 21.4655 20.3734 21.6162 20.2752L23.9978 18.7156C24.3445 18.4883 24.6179 18.1652 24.7847 17.7856C24.9515 17.406 25.0046 16.9862 24.9375 16.577L24.3408 12.9474C26.2114 13.0482 28.0408 13.536 29.7134 14.3798C31.3859 15.2237 32.8653 16.4053 34.0579 17.85L33.0096 18.5966C32.4089 19.0248 31.9789 19.6516 31.7957 20.3661L31.4627 21.667C31.3123 22.255 31.3364 22.8741 31.5322 23.4486C31.728 24.0232 32.087 24.5281 32.5652 24.9019C32.8462 25.1228 33.0591 25.4185 33.1795 25.755C33.2998 26.0915 33.3227 26.4552 33.2455 26.8041L32.5726 29.8053C32.4938 30.1578 32.3155 30.4803 32.0587 30.7344L31.472 31.3154C31.137 31.6454 30.8813 32.0471 30.7242 32.4903C30.567 32.9335 30.5126 33.4066 30.5648 33.8739ZM37.1735 26.4904C37.1738 28.5091 36.7226 30.5023 35.8532 32.3242C34.9838 34.1461 33.7181 35.7505 32.1487 37.0202L31.7909 33.7397C31.7594 33.457 31.7924 33.1709 31.8874 32.9029C31.9825 32.6348 32.1371 32.3918 32.3396 32.1922L32.9263 31.6112C33.3507 31.1913 33.6457 30.6583 33.776 30.0756L34.4489 27.0744C34.5764 26.4977 34.5386 25.8967 34.3397 25.3405C34.1408 24.7844 33.7889 24.2956 33.3246 23.9306C33.0352 23.7045 32.818 23.3989 32.6995 23.0513C32.581 22.7037 32.5664 22.3291 32.6574 21.9733L32.9904 20.6724C33.1012 20.24 33.3614 19.8608 33.7249 19.6018L34.8008 18.8356C36.3492 21.0878 37.1767 23.7573 37.1737 26.4904H37.1735Z" fill="black"/>
</svg>
